<svg xmlns="http://www.w3.org/2000/svg" version="1.1" xmlns:xlink="http://www.w3.org/1999/xlink" xmlns:svgjs="http://svgjs.dev/svgjs" width="1000" height="1000" viewBox="0 0 1000 1000"><rect width="1000" height="1000" fill="#000000"></rect><g transform="matrix(0.7,0,0,0.7,149.57575757575756,329.255134585424)"><svg viewBox="0 0 396 194" data-background-color="#282634" preserveAspectRatio="xMidYMid meet" height="489" width="1000" xmlns="http://www.w3.org/2000/svg" xmlns:xlink="http://www.w3.org/1999/xlink"><g id="tight-bounds" transform="matrix(1,0,0,1,0.2400000000000091,-0.22961177204865635)"><svg viewBox="0 0 395.52 194.4592235440973" height="194.4592235440973" width="395.52"><g><svg viewBox="0 0 395.52 194.4592235440973" height="194.4592235440973" width="395.52"><g transform="matrix(1,0,0,1,0,120.1836014673901)"><svg viewBox="0 0 395.52 74.27562207670721" height="74.27562207670721" width="395.52"><g id="textblocktransform"><svg viewBox="0 0 395.52 74.27562207670721" height="74.27562207670721" width="395.52" id="textblock"><g><svg viewBox="0 0 395.52 74.27562207670721" height="74.27562207670721" width="395.52"><g transform="matrix(1,0,0,1,0,0)"><svg width="395.52" viewBox="2.98 -37.5 209.26000000000002 39.21" height="74.27562207670721" data-palette-color="#1946b8"><g class="undefined-text-0" data-fill-palette-color="primary" id="text-0"><path d="M22.22-27.49L22.22-27.49Q22.22-26.95 22.44-26.59 22.66-26.22 22.66-25.93L22.66-25.93Q22.56-25.44 22.85-24.78 23.14-24.12 23.14-23.44L23.14-23.44Q23.05-23.14 22.39-22.68 21.73-22.22 20.92-21.68 20.12-21.14 19.36-20.63 18.6-20.12 18.31-19.82L18.31-19.82Q18.55-19.43 18.92-19.19 19.29-18.95 19.63-18.7L19.63-18.7Q19.92-18.46 20.48-17.99 21.04-17.53 21.66-16.99 22.27-16.46 22.78-15.97 23.29-15.48 23.44-15.23L23.44-15.23Q23.54-15.19 23.61-14.89 23.68-14.6 23.73-14.23 23.78-13.87 23.8-13.53 23.83-13.18 23.83-13.09L23.83-13.09Q23.78-12.55 23.85-12.3 23.93-12.06 24-11.79 24.07-11.52 24.12-11.28 24.17-11.04 24.17-11.04L24.17-11.04Q24.17-10.74 23.9-10.5 23.63-10.25 23.39-10.06L23.39-10.06Q23.14-9.86 22.92-9.67 22.71-9.47 22.46-9.23L22.46-9.23Q22.17-8.98 21.8-8.76 21.44-8.54 21.14-8.3L21.14-8.3Q20.95-8.2 20.8-8.03 20.65-7.86 20.51-7.76L20.51-7.76Q20.07-7.37 19.53-7.01 18.99-6.64 18.51-6.35L18.51-6.35Q17.97-6.01 17.48-5.64 16.99-5.27 16.46-4.88L16.46-4.88Q15.72-4.44 15.01-4.03 14.31-3.61 13.62-3.17L13.62-3.17Q13.28-2.93 12.96-2.69 12.65-2.44 12.3-2.25L12.3-2.25Q11.33-1.71 10.35-1.12 9.38-0.54 8.45 0.15L8.45 0.15Q7.67 0.34 7.32 0.46 6.98 0.59 6.64 0.59L6.64 0.59Q6.35 0.59 6.27 0.37 6.2 0.15 6.01 0.15L6.01 0.15Q5.27 0.24 5.2 0.17 5.13 0.1 4.98 0L4.98 0Q4.25 0.1 3.76 0L3.76 0Q3.61-0.24 3.56-0.61 3.52-0.98 3.27-1.22L3.27-1.22Q3.37-1.71 3.3-2.15 3.22-2.59 3.32-3.03L3.32-3.03Q3.17-3.61 3.17-4.1L3.17-4.1Q3.17-4.74 3.32-5.42L3.32-5.42Q3.17-5.86 3.17-6.3L3.17-6.3Q3.17-6.69 3.22-7.08 3.27-7.47 3.27-7.86L3.27-7.86Q3.27-8.35 3.08-8.74L3.08-8.74Q3.08-9.62 3.05-10.47 3.03-11.33 3.03-12.21L3.03-12.21Q3.03-12.6 3.03-12.99 3.03-13.38 3.08-13.82L3.08-13.82Q3.03-14.06 3.03-14.55L3.03-14.55Q3.03-14.84 3.13-15.06 3.22-15.28 3.22-15.53L3.22-15.53Q3.22-16.06 3.15-16.55 3.08-17.04 3.08-17.58L3.08-17.58Q3.08-18.07 3.15-18.51 3.22-18.95 3.22-19.43L3.22-19.43Q3.08-19.63 3.03-19.87 2.98-20.12 2.98-20.36L2.98-20.36Q2.98-20.56 3.08-20.95L3.08-20.95Q3.08-21.34 3.03-21.78 2.98-22.22 2.98-22.61L2.98-22.61Q2.98-22.8 3-22.95 3.03-23.1 3.08-23.29L3.08-23.29Q2.98-23.63 2.98-23.97 2.98-24.32 2.98-24.66L2.98-24.66Q2.98-25.1 3.03-25.56 3.08-26.03 3.08-26.46L3.08-26.46Q3.03-27.2 3.1-27.61 3.17-28.03 3.22-28.47L3.22-28.47 3.22-31.25Q3.22-31.64 3.13-32.1 3.03-32.57 3.03-33.01L3.03-33.01Q3.03-33.25 3.08-33.74 3.13-34.23 3.22-34.47L3.22-34.47Q3.91-35.5 4.83-35.64L4.83-35.64Q5.03-35.74 5.13-35.91 5.22-36.08 5.57-36.08L5.57-36.08Q6.15-36.57 6.35-36.84 6.54-37.11 6.84-37.35L6.84-37.35Q6.98-37.35 7.1-37.43 7.23-37.5 7.42-37.5L7.42-37.5Q7.76-37.4 7.98-37.3 8.2-37.21 8.45-37.16L8.45-37.16Q9.42-36.43 10.38-35.72 11.33-35.01 12.3-34.23L12.3-34.23Q12.74-33.84 13.16-33.45 13.57-33.06 14.01-32.71L14.01-32.71Q14.26-32.57 14.55-32.42 14.84-32.28 15.09-32.08L15.09-32.08Q15.63-31.74 16.16-31.37 16.7-31.01 17.24-30.66L17.24-30.66 20.75-28.47Q21.14-28.22 21.51-27.98 21.88-27.73 22.22-27.49ZM15.23-25.39L15.23-25.39Q14.5-25.73 13.84-26.22 13.18-26.71 12.45-26.95L12.45-26.95Q12.06-27.34 11.62-27.49 11.18-27.64 10.79-27.93L10.79-27.93Q10.35-28.32 10.01-28.61 9.67-28.91 9.13-29.15L9.13-29.15Q8.89-27.64 8.76-26.2 8.64-24.76 8.64-23.29L8.64-23.29Q8.64-21.78 8.94-20.41L8.94-20.41Q9.47-20.65 9.96-20.95 10.45-21.24 10.94-21.53L10.94-21.53Q11.13-21.63 11.3-21.73 11.47-21.83 11.72-21.92L11.72-21.92Q11.96-22.12 12.21-22.31 12.45-22.51 12.7-22.66L12.7-22.66Q13.23-23.05 13.75-23.36 14.26-23.68 14.79-24.07L14.79-24.07Q15.04-24.27 15.33-24.39 15.63-24.51 15.92-24.76L15.92-24.76Q15.87-24.95 15.6-25.07 15.33-25.2 15.23-25.39ZM13.82-16.26L13.82-16.26Q13.67-16.26 13.53-16.33 13.38-16.41 13.18-16.41L13.18-16.41Q12.6-16.02 12.08-15.75 11.57-15.48 11.04-15.14L11.04-15.14Q10.79-14.99 10.55-14.79 10.3-14.6 10.06-14.5L10.06-14.5Q9.42-14.11 9.08-13.84 8.74-13.57 8.54-13.18L8.54-13.18Q8.64-11.82 8.62-10.45 8.59-9.08 8.59-7.67L8.59-7.67Q8.59-7.42 8.74-7.13L8.74-7.13Q9.18-7.18 10.3-7.79 11.43-8.4 12.67-9.18 13.92-9.96 15.06-10.69 16.21-11.43 16.75-11.77L16.75-11.77Q17.14-11.87 17.65-12.16 18.16-12.45 18.26-12.84L18.26-12.84Q17.33-13.92 16.11-14.62 14.89-15.33 13.82-16.26ZM35.06-12.79L35.06-12.79Q35.15-12.55 35.76-11.77 36.37-10.99 37.16-10.06 37.94-9.13 38.64-8.28 39.35-7.42 39.65-7.03L39.65-7.03Q40.18-6.35 40.7-5.69 41.21-5.03 41.65-4.3L41.65-4.3 42.53-2.83Q42.92-2.34 43.23-2 43.55-1.66 43.75-1.07L43.75-1.07Q43.85-0.68 43.85-0.54L43.85-0.54Q43.85-0.2 43.6-0.05L43.6-0.05Q43.21-0.05 43.19 0.07 43.16 0.2 42.97 0.29L42.97 0.29Q42.77 0.39 42.36 0.42 41.94 0.44 41.7 0.44L41.7 0.44Q41.26 0.44 40.6 0.42 39.94 0.39 39.55 0.54L39.55 0.54Q39.45 0.59 39.26 0.68 39.06 0.78 38.96 0.78L38.96 0.78Q38.57 0.78 38.4 0.66 38.23 0.54 37.94 0.49L37.94 0.49Q37.55 0.05 37.28-0.42 37.01-0.88 36.67-1.37L36.67-1.37Q36.33-1.71 35.98-1.98 35.64-2.25 35.4-2.59L35.4-2.59Q34.67-3.66 33.88-4.69 33.1-5.71 32.27-6.69L32.27-6.69Q31.88-7.23 31.44-7.67 31-8.11 30.61-8.64L30.61-8.64Q30.22-9.13 29.88-9.69 29.54-10.25 29.2-10.79L29.2-10.79Q28.9-11.23 28.42-11.94 27.93-12.65 27.34-13.35 26.76-14.06 26.17-14.7 25.58-15.33 25.19-15.67L25.19-15.67Q25.14-15.97 24.95-16.14 24.75-16.31 24.51-16.46L24.51-16.46Q24.41-16.7 24.29-16.92 24.17-17.14 24.17-17.38L24.17-17.38Q24.17-17.72 24.31-18.02L24.31-18.02Q24.41-18.21 24.44-18.38 24.46-18.55 24.56-18.75L24.56-18.75Q24.8-19.29 25.22-19.8 25.63-20.31 25.88-20.9L25.88-20.9Q25.97-21.04 25.97-21.22 25.97-21.39 26.07-21.53L26.07-21.53Q26.17-21.92 26.49-22.19 26.8-22.46 27-22.8L27-22.8Q27.24-23.19 27.46-23.61 27.68-24.02 27.93-24.51L27.93-24.51Q28.66-25.73 29.47-26.88 30.27-28.03 31.1-29.2L31.1-29.2Q31.74-30.18 32.35-31.08 32.96-31.98 33.59-32.91L33.59-32.91Q33.93-33.35 34.32-33.94 34.71-34.52 35.18-35.11 35.64-35.69 36.13-36.18 36.62-36.67 37.11-36.96L37.11-36.96Q37.84-37.01 38.08-36.65 38.33-36.28 38.82-36.28L38.82-36.28Q39.45-36.13 39.65-35.89 39.84-35.64 40.09-35.4L40.09-35.4Q40.77-35.4 41.18-35.16 41.6-34.91 41.99-34.42L41.99-34.42Q41.84-33.89 41.55-33.47 41.26-33.06 41.01-32.62L41.01-32.62Q40.62-32.42 40.45-32.08 40.28-31.74 39.94-31.54L39.94-31.54Q39.45-30.71 38.91-29.96 38.38-29.2 37.84-28.47L37.84-28.47Q37.55-28.03 37.23-27.69 36.91-27.34 36.67-26.95L36.67-26.95Q36.57-26.81 36.5-26.64 36.42-26.46 36.33-26.32L36.33-26.32Q35.74-25.39 35.06-24.58 34.37-23.78 33.79-22.8L33.79-22.8Q33.59-22.46 33.47-22.09 33.35-21.73 33.15-21.39L33.15-21.39Q32.96-21.09 32.59-20.61 32.22-20.12 31.88-19.56 31.54-18.99 31.27-18.48 31-17.97 31-17.63L31-17.63Q31.05-17.38 31.61-16.67 32.18-15.97 32.88-15.16 33.59-14.36 34.23-13.65 34.86-12.94 35.06-12.79ZM38.28-21.68L38.28-21.68Q38.62-20.95 39.01-20.41L39.01-20.41Q39.16-20.21 39.35-20.07 39.55-19.92 39.65-19.68L39.65-19.68Q39.74-19.58 39.84-19.26 39.94-18.95 40.04-18.8L40.04-18.8Q40.18-18.41 40.62-17.92 41.06-17.43 41.06-17.04L41.06-17.04Q41.06-16.8 40.96-16.5 40.87-16.21 40.82-15.97L40.82-15.97Q40.77-15.67 40.77-15.36 40.77-15.04 40.57-14.79L40.57-14.79Q40.33-14.55 40.04-14.5 39.74-14.45 39.5-14.26L39.5-14.26Q39.4-14.16 39.21-13.92 39.01-13.67 38.82-13.38 38.62-13.09 38.45-12.82 38.28-12.55 38.28-12.4L38.28-12.4Q37.69-12.35 37.52-12.38 37.35-12.4 37.16-12.35L37.16-12.35Q36.91-12.6 36.64-12.77 36.37-12.94 35.98-13.09L35.98-13.09Q35.89-13.48 35.54-13.99 35.2-14.5 34.96-14.84L34.96-14.84 34.62-15.28Q33.88-16.31 33.27-17.26 32.66-18.21 32.37-19.38L32.37-19.38Q33.3-20.07 33.81-20.41 34.32-20.75 34.91-21.04 35.5-21.34 36.06-21.61 36.62-21.88 37.11-22.27L37.11-22.27Q37.5-22.27 37.64-22.22 37.79-22.17 37.84-22.12 37.89-22.07 37.96-21.95 38.03-21.83 38.28-21.68ZM56.1-35.99L56.1-35.99Q56.2-35.79 56.32-35.72 56.44-35.64 56.49-35.4L56.49-35.4Q56.83-35.16 57.03-35.03 57.22-34.91 57.27-34.62L57.27-34.62Q57.71-34.28 57.78-34.18 57.86-34.08 57.91-33.94L57.91-33.94Q58.15-33.74 58.37-33.59 58.59-33.45 58.69-33.15L58.69-33.15Q59.08-32.81 59.17-32.62 59.27-32.42 59.32-32.18L59.32-32.18Q59.13-31.84 58.54-31.25 57.95-30.66 57.22-30 56.49-29.35 55.81-28.74 55.12-28.13 54.73-27.78L54.73-27.78Q54.63-27.59 54.49-27.44 54.34-27.29 54.24-27.1L54.24-27.1Q53.95-26.86 53.71-26.59 53.46-26.32 53.12-26.17L53.12-26.17Q52.63-25.49 51.75-24.83 50.87-24.17 50.58-23.54L50.58-23.54Q50.63-23.39 50.8-23.24 50.97-23.1 51.07-23L51.07-23Q51.46-22.61 52-22.29 52.53-21.97 52.92-21.58L52.92-21.58Q53.32-21.24 53.71-20.92 54.1-20.61 54.49-20.26L54.49-20.26Q54.68-20.07 54.98-19.68L54.98-19.68Q55.46-19.29 55.93-18.97 56.39-18.65 56.83-18.26L56.83-18.26Q57.76-17.48 58.64-16.67 59.52-15.87 60.49-15.09L60.49-15.09 60.88-14.65Q60.88-14.26 61.1-13.75 61.32-13.23 61.52-12.89L61.52-12.89Q61.42-12.4 61.54-12.28 61.66-12.16 61.76-12.06L61.76-12.06Q61.71-11.13 61.81-10.84L61.81-10.84Q60.98-10.11 60.27-9.5 59.57-8.89 59.03-8.3L59.03-8.3Q58.59-7.76 58.12-7.35 57.66-6.93 57.12-6.45L57.12-6.45Q56.83-6.05 56.64-5.91L56.64-5.91Q56.29-5.57 55.95-5.37L55.95-5.37Q55.37-4.83 54.8-4.35 54.24-3.86 53.71-3.37L53.71-3.37Q53.32-3.03 52.97-2.71 52.63-2.39 52.29-2L52.29-2Q52-1.71 51.63-1.32 51.26-0.93 50.87-0.68L50.87-0.68Q50.73-0.39 50.48-0.17 50.24 0.05 50.04 0.29L50.04 0.29Q49.7 0.49 49.41 0.68 49.12 0.88 48.73 1.07L48.73 1.07Q48.33 0.78 47.97 0.54 47.6 0.29 47.16 0.2L47.16 0.2Q46.87-0.05 46.72-0.29 46.58-0.54 46.19-0.63L46.19-0.63Q46.09-0.78 45.97-0.95 45.84-1.12 45.75-1.32L45.75-1.32Q45.16-1.37 44.82-2.05L44.82-2.05Q44.92-2.34 45.09-2.49 45.26-2.64 45.16-3.03L45.16-3.03Q45.45-3.52 45.87-3.88 46.28-4.25 46.67-4.64L46.67-4.64Q47.11-5.03 47.48-5.44 47.85-5.86 48.29-6.25L48.29-6.25Q48.53-6.49 48.77-6.71 49.02-6.93 49.31-7.18L49.31-7.18Q49.85-7.71 50.41-8.18 50.97-8.64 51.56-9.18L51.56-9.18Q52.34-9.96 53.17-10.67 54-11.38 54.68-12.26L54.68-12.26Q54.63-12.45 54.54-12.52 54.44-12.6 54.39-12.74L54.39-12.74Q53.61-13.48 52.85-14.18 52.09-14.89 51.22-15.43L51.22-15.43Q50.92-15.72 50.83-15.92L50.83-15.92Q49.95-16.55 49.14-17.33 48.33-18.12 47.36-18.65L47.36-18.65Q47.16-18.9 46.89-19.07 46.63-19.24 46.38-19.38L46.38-19.38Q46.24-19.63 46.06-19.8 45.89-19.97 45.65-20.07L45.65-20.07Q45.26-20.41 45.14-20.63 45.01-20.85 44.72-20.9L44.72-20.9Q44.62-21.14 44.4-21.29 44.18-21.44 43.94-21.63L43.94-21.63Q43.84-21.92 43.65-22.12L43.65-22.12Q43.6-22.51 43.7-22.68 43.79-22.85 43.84-22.95L43.84-22.95Q43.79-23.24 43.57-23.39 43.35-23.54 43.35-23.88L43.35-23.88Q43.35-24.07 43.48-24.15 43.6-24.22 43.65-24.37L43.65-24.37 43.79-25.1Q44.18-25.39 44.45-25.81 44.72-26.22 45.16-26.46L45.16-26.46Q45.65-27.2 46.38-27.69L46.38-27.69Q46.63-28.08 46.99-28.32 47.36-28.56 47.6-28.96L47.6-28.96Q47.99-29.2 48.26-29.49 48.53-29.79 48.92-30.03L48.92-30.03Q49.02-30.22 49.14-30.35 49.26-30.47 49.31-30.62L49.31-30.62Q50.63-31.88 51.63-32.81 52.63-33.74 53.71-34.67L53.71-34.67Q54-34.91 54.29-35.21 54.58-35.5 54.93-35.74L54.93-35.74Q55.02-35.84 55.17-35.84 55.32-35.84 55.46-35.94L55.46-35.94Q56.05-35.94 56.1-35.99ZM84.42-34.91L84.42-34.91Q84.32-34.72 84.34-34.52 84.37-34.33 84.37-34.08L84.37-34.08Q84.27-33.5 84.37-33.5 84.47-33.5 84.47-33.4L84.47-33.4 84.12-32.91Q84.12-32.62 84-32.37 83.88-32.13 83.93-31.79L83.93-31.79Q83.78-31.54 83.66-31.3 83.54-31.05 83.29-30.81L83.29-30.81 82.66-30.81Q82.12-30.81 81.51-30.74 80.9-30.66 80.31-30.66L80.31-30.66Q80.22-30.66 80.07-30.69 79.92-30.71 79.78-30.71L79.78-30.71Q79.68-30.71 79.53-30.69 79.39-30.66 79.19-30.66L79.19-30.66Q78.46-30.66 77.75-30.74 77.04-30.81 76.26-30.81L76.26-30.81Q76.07-30.81 75.87-30.81 75.68-30.81 75.43-30.76L75.43-30.76Q75.38-29.93 75.36-29.08 75.33-28.22 75.33-27.34L75.33-27.34Q75.33-27.1 75.29-26.83 75.24-26.56 75.24-26.32L75.24-26.32Q75.19-25.68 75.16-25.1 75.14-24.51 75.14-23.88L75.14-23.88Q75.14-22.51 75.16-21.14 75.19-19.78 75.24-18.36L75.24-18.36Q75.29-17.63 75.33-16.94 75.38-16.26 75.38-15.53L75.38-15.53Q75.38-13.87 75.33-12.23 75.29-10.6 75.29-8.94L75.29-8.94Q75.29-8.4 75.24-7.93 75.19-7.47 75.19-6.93L75.19-6.93Q75.19-5.81 75.24-4.69 75.29-3.56 75.29-2.44L75.29-2.44Q75.29-1.9 75.26-1.37 75.24-0.83 75.24-0.29L75.24-0.29Q74.99 0.1 74.89 0.39 74.8 0.68 74.31 0.68L74.31 0.68Q73.97 0.59 73.99 0.46 74.02 0.34 73.92 0.24L73.92 0.24Q73.48 0.2 73.26 0.32 73.04 0.44 72.75 0.54L72.75 0.54Q72.6 0.49 72.43 0.49 72.26 0.49 72.11 0.49L72.11 0.49Q72.01 0.49 71.92 0.56 71.82 0.63 71.48 0.63L71.48 0.63Q71.18 0.68 71.14 0.54 71.09 0.39 70.84 0.39L70.84 0.39Q70.6 0.54 70.28 0.61 69.96 0.68 69.67 0.68L69.67 0.68Q69.38 0.49 69.4 0.32 69.43 0.15 69.33-0.05L69.33-0.05Q69.28-0.15 69.16-0.32 69.04-0.49 68.94-0.59L68.94-0.59Q69.04-1.27 69.08-1.81 69.13-2.34 69.13-2.98L69.13-2.98Q69.13-4.25 69.04-5.47 68.94-6.69 68.94-7.96L68.94-7.96Q68.94-8.35 69.04-8.79 69.13-9.23 69.13-9.72L69.13-9.72Q69.04-10.11 69.08-10.18 69.13-10.25 69.13-10.35L69.13-10.35Q69.13-10.64 69.11-10.94 69.08-11.23 69.08-11.52L69.08-11.52Q69.08-12.11 69.11-12.7 69.13-13.28 69.13-13.87L69.13-13.87Q69.13-14.11 69.11-14.38 69.08-14.65 69.08-14.89L69.08-14.89Q69.04-15.33 69.06-15.82 69.08-16.31 69.08-16.8L69.08-16.8Q69.08-19.14 69.01-21.44 68.94-23.73 68.94-26.07L68.94-26.07Q68.94-27.25 69.06-28.39 69.18-29.54 69.18-30.71L69.18-30.71Q69.18-30.86 69.08-31.1 68.99-31.35 68.89-31.45L68.89-31.45Q68.64-31.45 68.43-31.47 68.21-31.49 67.96-31.49L67.96-31.49Q67.42-31.49 66.94-31.35L66.94-31.35Q66.01-31.3 65.15-31.23 64.3-31.15 63.42-31.1L63.42-31.1Q62.83-31.15 62.71-31.13 62.59-31.1 62.44-31.1L62.44-31.1Q62.05-31.1 61.86-31.3L61.86-31.3 61.86-31.93Q61.56-32.52 61.61-32.57 61.66-32.62 61.66-32.71L61.66-32.71Q61.66-32.86 61.39-33.03 61.13-33.2 61.13-33.59L61.13-33.59Q61.08-33.98 60.93-34.18 60.78-34.38 60.78-34.57L60.78-34.57Q60.78-34.91 60.93-35.35L60.93-35.35Q61.37-35.6 61.78-35.69 62.2-35.79 62.74-35.94L62.74-35.94Q63.03-36.04 63.27-36.13 63.52-36.23 63.81-36.28L63.81-36.28Q64.15-36.33 64.49-36.33 64.84-36.33 65.18-36.38L65.18-36.38Q65.91-36.52 66.72-36.62 67.52-36.72 68.25-36.72L68.25-36.72Q68.94-36.72 69.62-36.55 70.31-36.38 70.84-36.38L70.84-36.38Q71.62-36.38 72.33-36.28 73.04-36.18 73.82-36.18L73.82-36.18Q73.92-36.18 74.14-36.11 74.36-36.04 74.65-36.04L74.65-36.04 79.39-36.04Q79.78-35.94 79.95-35.99 80.12-36.04 80.27-36.04L80.27-36.04Q80.66-36.04 81-35.99 81.34-35.94 81.73-35.94L81.73-35.94Q82.07-35.94 82.27-35.99L82.27-35.99Q82.66-35.94 83-35.77 83.34-35.6 83.78-35.6L83.78-35.6Q83.98-35.45 84.07-35.23 84.17-35.01 84.42-34.91Z" fill="#ffffff" data-fill-palette-color="primary"></path><path d="M97.85-36.33L97.85-36.33Q98.19-35.69 98.19-34.86L98.19-34.86Q98.19-34.13 97.9-33.3 97.6-32.47 96.97-32.03L96.97-32.03Q96.53-31.05 96.12-30.44 95.7-29.83 95.31-29.25L95.31-29.25Q95.16-28.91 95.02-28.59 94.87-28.27 94.63-27.93L94.63-27.93Q94.48-27.69 93.99-26.95 93.5-26.22 92.99-25.42 92.48-24.61 92.09-23.88 91.7-23.14 91.7-22.95L91.7-22.95Q91.7-22.75 92.16-22.46 92.62-22.17 92.77-22.02L92.77-22.02Q93.01-21.78 93.23-21.53 93.45-21.29 93.7-21.04L93.7-21.04Q94.24-20.61 94.75-20.17 95.26-19.73 95.8-19.19L95.8-19.19Q96.82-18.26 97.95-17.43 99.07-16.6 99.95-15.48L99.95-15.48Q100.78-15.23 101.02-14.31 101.27-13.38 101.17-12.55L101.17-12.55Q101.27-12.4 101.34-12.26 101.41-12.11 101.51-11.91L101.51-11.91Q101.51-11.13 101.29-10.77 101.07-10.4 100.83-9.86L100.83-9.86Q100.58-9.38 100.51-8.89 100.44-8.4 100.19-8.01L100.19-8.01Q100.1-7.86 99.92-7.76 99.75-7.67 99.66-7.47L99.66-7.47Q99.46-7.13 99.34-6.67 99.22-6.2 99.02-5.81L99.02-5.81Q98.87-5.42 98.65-5.03 98.43-4.64 98.29-4.25L98.29-4.25Q98.19-4 98.12-3.66 98.04-3.32 97.65-3.17L97.65-3.17Q97.41-2.29 96.99-1.46 96.58-0.63 96.34 0.24L96.34 0.24Q95.9 0.39 95.24 0.81 94.58 1.22 94.19 1.22L94.19 1.22Q94.04 1.22 93.94 1.07 93.85 0.93 93.65 0.83L93.65 0.83Q93.55 0.78 93.38 0.83 93.21 0.88 93.11 0.88L93.11 0.88Q92.87 0.88 92.75 0.68 92.62 0.49 92.43 0.39L92.43 0.39Q92.28 0.44 92.14 0.49 91.99 0.54 91.84 0.54L91.84 0.54Q91.5 0.54 91.45 0.37 91.4 0.2 91.16 0.05L91.16 0.05Q90.57-0.24 90.48-0.49 90.38-0.73 90.18-0.83L90.18-0.83Q90.52-2.1 91.11-3.25 91.7-4.39 92.23-5.57L92.23-5.57Q92.38-5.96 92.6-6.3 92.82-6.64 93.01-7.03L93.01-7.03Q93.16-7.37 93.45-7.91 93.75-8.45 93.99-9.03 94.24-9.62 94.43-10.13 94.63-10.64 94.63-10.99L94.63-10.99Q94.63-11.67 94.24-12.01L94.24-12.01Q92.82-13.18 91.57-14.4 90.33-15.63 88.96-16.89L88.96-16.89Q88.08-17.68 87.06-18.51L87.06-18.51Q86.86-18.65 86.76-18.95 86.67-19.24 86.47-19.48L86.47-19.48Q86.37-19.68 86.18-19.78 85.98-19.87 85.89-20.07L85.89-20.07Q85.74-20.26 85.69-20.53 85.64-20.8 85.4-20.95L85.4-20.95Q85.15-21.19 84.81-21.24 84.47-21.29 84.23-21.53L84.23-21.53Q84.37-21.68 84.35-21.85 84.32-22.02 84.32-22.17L84.32-22.17Q84.32-22.51 84.62-22.66 84.91-22.8 84.91-23.19L84.91-23.19Q85.1-23.58 85.2-23.68L85.2-23.68Q85.74-25 86.42-26.22 87.11-27.44 87.84-28.66L87.84-28.66Q88.08-29.05 88.3-29.42 88.52-29.79 88.77-30.18L88.77-30.18Q88.91-30.52 89.04-30.79 89.16-31.05 89.4-31.3L89.4-31.3Q90.09-32.08 90.55-32.76 91.01-33.45 91.26-34.42L91.26-34.42Q91.31-34.67 91.45-35.11 91.6-35.55 91.82-35.99 92.04-36.43 92.28-36.77 92.53-37.11 92.82-37.11L92.82-37.11Q93.06-37.11 93.53-36.91 93.99-36.72 94.33-36.62L94.33-36.62Q94.63-36.52 94.94-36.45 95.26-36.38 95.55-36.38L95.55-36.38Q95.75-36.38 95.94-36.5 96.14-36.62 96.38-36.62L96.38-36.62Q96.77-36.62 97.12-36.5 97.46-36.38 97.85-36.33ZM112.15-12.79L112.15-12.79Q112.25-12.55 112.86-11.77 113.47-10.99 114.25-10.06 115.03-9.13 115.74-8.28 116.45-7.42 116.74-7.03L116.74-7.03Q117.28-6.35 117.79-5.69 118.31-5.03 118.74-4.3L118.74-4.3 119.62-2.83Q120.01-2.34 120.33-2 120.65-1.66 120.84-1.07L120.84-1.07Q120.94-0.68 120.94-0.54L120.94-0.54Q120.94-0.2 120.7-0.05L120.7-0.05Q120.31-0.05 120.28 0.07 120.26 0.2 120.06 0.29L120.06 0.29Q119.87 0.39 119.45 0.42 119.04 0.44 118.79 0.44L118.79 0.44Q118.35 0.44 117.7 0.42 117.04 0.39 116.65 0.54L116.65 0.54Q116.55 0.59 116.35 0.68 116.16 0.78 116.06 0.78L116.06 0.78Q115.67 0.78 115.5 0.66 115.33 0.54 115.03 0.49L115.03 0.49Q114.64 0.05 114.37-0.42 114.11-0.88 113.76-1.37L113.76-1.37Q113.42-1.71 113.08-1.98 112.74-2.25 112.49-2.59L112.49-2.59Q111.76-3.66 110.98-4.69 110.2-5.71 109.37-6.69L109.37-6.69Q108.98-7.23 108.54-7.67 108.1-8.11 107.71-8.64L107.71-8.64Q107.32-9.13 106.98-9.69 106.64-10.25 106.29-10.79L106.29-10.79Q106-11.23 105.51-11.94 105.02-12.65 104.44-13.35 103.85-14.06 103.27-14.7 102.68-15.33 102.29-15.67L102.29-15.67Q102.24-15.97 102.05-16.14 101.85-16.31 101.61-16.46L101.61-16.46Q101.51-16.7 101.39-16.92 101.26-17.14 101.26-17.38L101.26-17.38Q101.26-17.72 101.41-18.02L101.41-18.02Q101.51-18.21 101.53-18.38 101.56-18.55 101.65-18.75L101.65-18.75Q101.9-19.29 102.31-19.8 102.73-20.31 102.97-20.9L102.97-20.9Q103.07-21.04 103.07-21.22 103.07-21.39 103.17-21.53L103.17-21.53Q103.27-21.92 103.58-22.19 103.9-22.46 104.1-22.8L104.1-22.8Q104.34-23.19 104.56-23.61 104.78-24.02 105.02-24.51L105.02-24.51Q105.76-25.73 106.56-26.88 107.37-28.03 108.2-29.2L108.2-29.2Q108.83-30.18 109.44-31.08 110.05-31.98 110.69-32.91L110.69-32.91Q111.03-33.35 111.42-33.94 111.81-34.52 112.28-35.11 112.74-35.69 113.23-36.18 113.72-36.67 114.2-36.96L114.2-36.96Q114.94-37.01 115.18-36.65 115.42-36.28 115.91-36.28L115.91-36.28Q116.55-36.13 116.74-35.89 116.94-35.64 117.18-35.4L117.18-35.4Q117.87-35.4 118.28-35.16 118.7-34.91 119.09-34.42L119.09-34.42Q118.94-33.89 118.65-33.47 118.35-33.06 118.11-32.62L118.11-32.62Q117.72-32.42 117.55-32.08 117.38-31.74 117.04-31.54L117.04-31.54Q116.55-30.71 116.01-29.96 115.47-29.2 114.94-28.47L114.94-28.47Q114.64-28.03 114.33-27.69 114.01-27.34 113.76-26.95L113.76-26.95Q113.67-26.81 113.59-26.64 113.52-26.46 113.42-26.32L113.42-26.32Q112.84-25.39 112.15-24.58 111.47-23.78 110.88-22.8L110.88-22.8Q110.69-22.46 110.57-22.09 110.44-21.73 110.25-21.39L110.25-21.39Q110.05-21.09 109.69-20.61 109.32-20.12 108.98-19.56 108.64-18.99 108.37-18.48 108.1-17.97 108.1-17.63L108.1-17.63Q108.15-17.38 108.71-16.67 109.27-15.97 109.98-15.16 110.69-14.36 111.32-13.65 111.96-12.94 112.15-12.79ZM115.38-21.68L115.38-21.68Q115.72-20.95 116.11-20.41L116.11-20.41Q116.25-20.21 116.45-20.07 116.65-19.92 116.74-19.68L116.74-19.68Q116.84-19.58 116.94-19.26 117.04-18.95 117.13-18.8L117.13-18.8Q117.28-18.41 117.72-17.92 118.16-17.43 118.16-17.04L118.16-17.04Q118.16-16.8 118.06-16.5 117.96-16.21 117.91-15.97L117.91-15.97Q117.87-15.67 117.87-15.36 117.87-15.04 117.67-14.79L117.67-14.79Q117.43-14.55 117.13-14.5 116.84-14.45 116.6-14.26L116.6-14.26Q116.5-14.16 116.3-13.92 116.11-13.67 115.91-13.38 115.72-13.09 115.55-12.82 115.38-12.55 115.38-12.4L115.38-12.4Q114.79-12.35 114.62-12.38 114.45-12.4 114.25-12.35L114.25-12.35Q114.01-12.6 113.74-12.77 113.47-12.94 113.08-13.09L113.08-13.09Q112.98-13.48 112.64-13.99 112.3-14.5 112.06-14.84L112.06-14.84 111.71-15.28Q110.98-16.31 110.37-17.26 109.76-18.21 109.47-19.38L109.47-19.38Q110.4-20.07 110.91-20.41 111.42-20.75 112.01-21.04 112.59-21.34 113.15-21.61 113.72-21.88 114.2-22.27L114.2-22.27Q114.59-22.27 114.74-22.22 114.89-22.17 114.94-22.12 114.99-22.07 115.06-21.95 115.13-21.83 115.38-21.68ZM143.84-34.91L143.84-34.91Q143.74-34.72 143.77-34.52 143.79-34.33 143.79-34.08L143.79-34.08Q143.69-33.5 143.79-33.5 143.89-33.5 143.89-33.4L143.89-33.4 143.55-32.91Q143.55-32.62 143.42-32.37 143.3-32.13 143.35-31.79L143.35-31.79Q143.21-31.54 143.08-31.3 142.96-31.05 142.72-30.81L142.72-30.81 142.08-30.81Q141.55-30.81 140.93-30.74 140.32-30.66 139.74-30.66L139.74-30.66Q139.64-30.66 139.49-30.69 139.35-30.71 139.2-30.71L139.2-30.71Q139.1-30.71 138.96-30.69 138.81-30.66 138.62-30.66L138.62-30.66Q137.88-30.66 137.17-30.74 136.47-30.81 135.69-30.81L135.69-30.81Q135.49-30.81 135.3-30.81 135.1-30.81 134.86-30.76L134.86-30.76Q134.81-29.93 134.78-29.08 134.76-28.22 134.76-27.34L134.76-27.34Q134.76-27.1 134.71-26.83 134.66-26.56 134.66-26.32L134.66-26.32Q134.61-25.68 134.59-25.1 134.56-24.51 134.56-23.88L134.56-23.88Q134.56-22.51 134.59-21.14 134.61-19.78 134.66-18.36L134.66-18.36Q134.71-17.63 134.76-16.94 134.81-16.26 134.81-15.53L134.81-15.53Q134.81-13.87 134.76-12.23 134.71-10.6 134.71-8.94L134.71-8.94Q134.71-8.4 134.66-7.93 134.61-7.47 134.61-6.93L134.61-6.93Q134.61-5.81 134.66-4.69 134.71-3.56 134.71-2.44L134.71-2.44Q134.71-1.9 134.68-1.37 134.66-0.83 134.66-0.29L134.66-0.29Q134.42 0.1 134.32 0.39 134.22 0.68 133.73 0.68L133.73 0.68Q133.39 0.59 133.42 0.46 133.44 0.34 133.34 0.24L133.34 0.24Q132.9 0.2 132.68 0.32 132.46 0.44 132.17 0.54L132.17 0.54Q132.02 0.49 131.85 0.49 131.68 0.49 131.54 0.49L131.54 0.49Q131.44 0.49 131.34 0.56 131.24 0.63 130.9 0.63L130.9 0.63Q130.61 0.68 130.56 0.54 130.51 0.39 130.27 0.39L130.27 0.39Q130.02 0.54 129.7 0.61 129.39 0.68 129.09 0.68L129.09 0.68Q128.8 0.49 128.83 0.32 128.85 0.15 128.75-0.05L128.75-0.05Q128.7-0.15 128.58-0.32 128.46-0.49 128.36-0.59L128.36-0.59Q128.46-1.27 128.51-1.81 128.56-2.34 128.56-2.98L128.56-2.98Q128.56-4.25 128.46-5.47 128.36-6.69 128.36-7.96L128.36-7.96Q128.36-8.35 128.46-8.79 128.56-9.23 128.56-9.72L128.56-9.72Q128.46-10.11 128.51-10.18 128.56-10.25 128.56-10.35L128.56-10.35Q128.56-10.64 128.53-10.94 128.51-11.23 128.51-11.52L128.51-11.52Q128.51-12.11 128.53-12.7 128.56-13.28 128.56-13.87L128.56-13.87Q128.56-14.11 128.53-14.38 128.51-14.65 128.51-14.89L128.51-14.89Q128.46-15.33 128.48-15.82 128.51-16.31 128.51-16.8L128.51-16.8Q128.51-19.14 128.43-21.44 128.36-23.73 128.36-26.07L128.36-26.07Q128.36-27.25 128.48-28.39 128.61-29.54 128.61-30.71L128.61-30.71Q128.61-30.86 128.51-31.1 128.41-31.35 128.31-31.45L128.31-31.45Q128.07-31.45 127.85-31.47 127.63-31.49 127.38-31.49L127.38-31.49Q126.85-31.49 126.36-31.35L126.36-31.35Q125.43-31.3 124.58-31.23 123.72-31.15 122.84-31.1L122.84-31.1Q122.26-31.15 122.14-31.13 122.01-31.1 121.87-31.1L121.87-31.1Q121.48-31.1 121.28-31.3L121.28-31.3 121.28-31.93Q120.99-32.52 121.04-32.57 121.09-32.62 121.09-32.71L121.09-32.71Q121.09-32.86 120.82-33.03 120.55-33.2 120.55-33.59L120.55-33.59Q120.5-33.98 120.35-34.18 120.21-34.38 120.21-34.57L120.21-34.57Q120.21-34.91 120.35-35.35L120.35-35.35Q120.79-35.6 121.21-35.69 121.62-35.79 122.16-35.94L122.16-35.94Q122.45-36.04 122.7-36.13 122.94-36.23 123.23-36.28L123.23-36.28Q123.58-36.33 123.92-36.33 124.26-36.33 124.6-36.38L124.6-36.38Q125.33-36.52 126.14-36.62 126.95-36.72 127.68-36.72L127.68-36.72Q128.36-36.72 129.05-36.55 129.73-36.38 130.27-36.38L130.27-36.38Q131.05-36.38 131.76-36.28 132.46-36.18 133.24-36.18L133.24-36.18Q133.34-36.18 133.56-36.11 133.78-36.04 134.07-36.04L134.07-36.04 138.81-36.04Q139.2-35.94 139.37-35.99 139.54-36.04 139.69-36.04L139.69-36.04Q140.08-36.04 140.42-35.99 140.76-35.94 141.15-35.94L141.15-35.94Q141.5-35.94 141.69-35.99L141.69-35.99Q142.08-35.94 142.42-35.77 142.77-35.6 143.21-35.6L143.21-35.6Q143.4-35.45 143.5-35.23 143.6-35.01 143.84-34.91ZM166.4-5.86L166.4-5.86Q165.91-5.81 165.81-5.91L165.81-5.91Q165.61-5.81 165.44-5.71 165.27-5.62 165.08-5.47L165.08-5.47Q164.39-5.22 163.73-4.83 163.08-4.44 162.39-4.1L162.39-4.1Q162-3.91 161.64-3.78 161.27-3.66 160.88-3.47L160.88-3.47Q160.29-3.17 159.71-2.86 159.12-2.54 158.49-2.29L158.49-2.29Q158.14-2.2 157.83-2.1 157.51-2 157.17-1.9L157.17-1.9Q156.78-1.76 156.46-1.59 156.14-1.42 155.8-1.27L155.8-1.27Q155.56-1.17 155.29-1.1 155.02-1.03 154.73-0.88L154.73-0.88Q154.48-0.78 154.31-0.63 154.14-0.49 153.9-0.39L153.9-0.39Q153.51-0.24 153.09-0.1 152.68 0.05 152.28 0.24L152.28 0.24Q151.89 0.44 151.72 0.61 151.55 0.78 151.06 0.93L151.06 0.93Q150.58 1.22 150.53 1.25 150.48 1.27 150.38 1.27L150.38 1.27Q150.23 1.37 150.11 1.44 149.99 1.51 149.84 1.61L149.84 1.61Q149.55 1.61 149.26 1.66 148.96 1.71 148.67 1.71L148.67 1.71Q148.33 1.51 148.21 1.32 148.09 1.12 148.09 0.78L148.09 0.78Q147.89 0.54 147.72 0.24 147.55-0.05 147.35-0.29L147.35-0.29Q147.01-0.1 146.94-0.32 146.86-0.54 146.82-0.81 146.77-1.07 146.72-1.34 146.67-1.61 146.62-1.71L146.62-1.71Q146.38-2.64 146.38-3.08L146.38-3.08Q146.38-3.32 146.47-3.39 146.57-3.47 146.57-3.61L146.57-3.61Q146.62-4.1 146.67-4.74 146.72-5.37 146.72-6.05 146.72-6.74 146.72-7.42 146.72-8.11 146.72-8.64L146.72-8.64Q146.72-10.84 146.67-12.92 146.62-14.99 146.62-17.09L146.62-17.09Q146.62-18.07 146.67-19.04 146.72-20.02 146.72-21L146.72-21Q146.72-23.39 146.79-25.73 146.86-28.08 146.86-30.47L146.86-30.47Q146.86-31.45 146.77-32.45 146.67-33.45 146.62-34.47L146.62-34.47Q146.57-35.01 146.67-35.33 146.77-35.64 146.72-35.99L146.72-35.99Q146.86-36.04 147.26-36.04 147.65-36.04 148.06-36.06 148.48-36.08 148.84-36.11 149.21-36.13 149.31-36.18L149.31-36.18Q149.65-35.94 149.99-35.94L149.99-35.94Q150.33-35.94 150.62-36.23L150.62-36.23Q150.87-36.13 150.89-36.08 150.92-36.04 151.16-36.04L151.16-36.04Q151.6-36.08 151.85-36.11 152.09-36.13 152.28-36.13L152.28-36.13Q152.82-35.74 152.94-35.18 153.07-34.62 153.11-34.01 153.16-33.4 153.19-32.79 153.21-32.18 153.21-31.79L153.21-31.79Q153.21-31.49 153.26-31.18 153.31-30.86 153.31-30.52L153.31-30.52Q153.31-30.27 153.29-30.03 153.26-29.79 153.26-29.54L153.26-29.54Q153.26-28.13 153.29-26.66 153.31-25.2 153.31-23.78L153.31-23.78Q153.31-21.24 153.24-18.68 153.16-16.11 153.16-13.57L153.16-13.57Q153.16-13.04 153.21-12.5 153.26-11.96 153.26-11.43L153.26-11.43Q153.26-11.13 153.24-10.84 153.21-10.55 153.21-10.25L153.21-10.25Q153.21-8.45 153.36-6.64L153.36-6.64Q153.55-6.69 154.19-6.91 154.82-7.13 155.51-7.4 156.19-7.67 156.78-7.93 157.36-8.2 157.51-8.35L157.51-8.35Q157.7-8.35 158.05-8.5 158.39-8.64 158.78-8.86 159.17-9.08 159.54-9.28 159.9-9.47 160.05-9.62L160.05-9.62Q160-10.6 160-11.6 160-12.6 160-13.57L160-13.57Q160-16.26 160.07-18.95 160.15-21.63 160.15-24.41L160.15-24.41Q160.15-26.12 160.1-27.83 160.05-29.54 160.05-31.25L160.05-31.25Q160.05-31.79 160.07-32.35 160.1-32.91 160.1-33.45L160.1-33.45Q160.1-34.28 160.07-35.08 160.05-35.89 160.15-36.72L160.15-36.72Q160.63-36.96 160.68-36.96L160.68-36.96Q160.98-36.96 161.1-36.96 161.22-36.96 161.32-36.87L161.32-36.87Q161.46-36.82 161.59-36.84 161.71-36.87 161.86-36.87L161.86-36.87Q162.1-36.87 162.34-36.77 162.59-36.67 162.83-36.67L162.83-36.67Q163.22-36.72 163.25-36.57 163.27-36.43 163.42-36.43L163.42-36.43Q163.81-36.57 163.95-36.43L163.95-36.43Q164.1-36.33 164.49-36.16 164.88-35.99 165.32-35.79 165.76-35.6 166.1-35.42 166.44-35.25 166.44-35.11L166.44-35.11Q166.59-34.33 166.54-33.45 166.49-32.57 166.49-31.79L166.49-31.79Q166.49-31.1 166.54-30.42 166.59-29.74 166.59-29.05L166.59-29.05Q166.59-28.66 166.59-28.27 166.59-27.88 166.64-27.54L166.64-27.54Q166.69-27.29 166.69-27.12 166.69-26.95 166.69-26.76L166.69-26.76Q166.69-26.51 166.79-26.12L166.79-26.12Q166.74-25.88 166.74-25.61 166.74-25.34 166.74-25.1L166.74-25.1Q166.74-24.41 166.79-23.68 166.84-22.95 166.84-22.22L166.84-22.22Q166.84-21.73 166.76-21.29 166.69-20.85 166.69-20.41L166.69-20.41 166.74-19.48Q166.74-18.99 166.79-18.51 166.84-18.02 166.84-17.48L166.84-17.48Q166.84-17.24 166.81-16.99 166.79-16.75 166.74-16.5L166.74-16.5Q166.69-16.26 166.69-15.97 166.69-15.67 166.69-15.43L166.69-15.43Q166.69-14.75 166.74-14.06 166.79-13.38 166.79-12.7L166.79-12.7Q166.79-12.26 166.76-11.84 166.74-11.43 166.74-10.99L166.74-10.99Q166.74-10.11 166.81-9.18 166.88-8.25 166.88-7.37L166.88-7.37Q166.88-6.98 166.79-6.54 166.69-6.1 166.4-5.86ZM176.84-35.5L176.84-35.5Q177.04-35.55 177.18-35.64 177.33-35.74 177.53-35.74L177.53-35.74Q177.67-35.69 177.75-35.55 177.82-35.4 177.97-35.3L177.97-35.3Q178.11-35.4 178.23-35.5 178.36-35.6 178.5-35.64L178.5-35.64Q178.99-35.5 179.04-35.16L179.04-35.16Q179.28-35.06 179.48-34.94 179.67-34.81 179.92-34.77L179.92-34.77Q180.02-34.57 180.16-34.47 180.31-34.38 180.5-34.18L180.5-34.18Q180.99-34.08 181.8-33.64 182.6-33.2 183.09-32.96L183.09-32.96Q183.58-32.71 184.07-32.47 184.56-32.23 185-31.93L185-31.93Q185.44-31.69 185.88-31.37 186.32-31.05 186.8-30.86L186.8-30.86Q187.24-30.32 187.93-30.18 188.61-30.03 189.15-29.64L189.15-29.64Q189.59-29.39 189.98-29.13 190.37-28.86 190.76-28.61L190.76-28.61Q190.91-28.37 191.13-28.22 191.34-28.08 191.54-27.83L191.54-27.83Q192.52-27.29 192.66-27L192.66-27Q192.81-26.9 193.1-26.71 193.4-26.51 193.69-26.29 193.98-26.07 194.23-25.85 194.47-25.63 194.52-25.44L194.52-25.44Q194.32-25 194.32-24.73 194.32-24.46 194.13-24.27L194.13-24.27Q194.42-23.88 194.42-23.54L194.42-23.54Q194.18-22.95 193.59-22.56L193.59-22.56Q193.44-22.17 193.13-21.95 192.81-21.73 192.71-21.34L192.71-21.34Q192.32-21.09 192.25-20.95 192.17-20.8 192.08-20.65L192.08-20.65Q191.15-19.68 190.34-18.97 189.54-18.26 188.85-17.43L188.85-17.43Q188.37-17.19 188.02-16.82 187.68-16.46 187.39-16.02L187.39-16.02Q187-15.63 186.63-15.26 186.27-14.89 185.88-14.55L185.88-14.55Q185.78-14.36 185.56-14.23 185.34-14.11 185.24-13.87L185.24-13.87Q184.7-13.62 184.36-13.18 184.02-12.74 183.53-12.45L183.53-12.45 183.19-11.96Q183.04-11.87 182.78-11.65 182.51-11.43 182.24-11.16 181.97-10.89 181.77-10.64 181.58-10.4 181.53-10.25L181.53-10.25Q181.38-10.21 181.07-9.96 180.75-9.72 180.43-9.42 180.11-9.13 179.85-8.84 179.58-8.54 179.53-8.45L179.53-8.45 179.04-8.11Q179.09-6.79 179.11-5.44 179.14-4.1 179.14-2.78L179.14-2.78 179.14-1.12 178.8-0.68Q178.55-0.68 178.41-0.78 178.26-0.88 178.06-0.88L178.06-0.88Q177.87-0.88 177.7-0.68 177.53-0.49 177.38-0.39L177.38-0.39Q177.04-0.34 176.82-0.22 176.6-0.1 176.35 0L176.35 0Q176.06-0.15 175.77-0.15L175.77-0.15Q175.13 0 175.16-0.1 175.18-0.2 174.94-0.2L174.94-0.2Q174.55 0.2 174.45 0.2L174.45 0.2Q174.25 0.2 174.08 0.24 173.91 0.29 173.72 0.29L173.72 0.29Q173.52-0.1 173.4-0.51 173.28-0.93 172.94-1.32L172.94-1.32Q173.08-1.81 172.89-2L172.89-2Q173.18-2.54 173.13-3.22 173.08-3.91 173.08-4.49L173.08-4.49Q173.08-4.83 173.11-5.15 173.13-5.47 173.13-5.76L173.13-5.76Q173.13-6.35 173.03-6.96 172.94-7.57 172.94-8.2L172.94-8.2Q172.94-9.67 173.03-11.16 173.13-12.65 173.13-14.11L173.13-14.11Q173.13-14.94 173.06-15.82 172.99-16.7 172.99-17.53L172.99-17.53Q172.99-18.07 173.03-18.53 173.08-18.99 173.13-19.43L173.13-19.43Q173.13-21.68 173.21-23.75 173.28-25.83 173.28-27.88L173.28-27.88Q173.28-28.56 173.25-29.17 173.23-29.79 173.23-30.47L173.23-30.47Q173.23-30.81 173.28-31.15 173.33-31.49 173.33-31.84L173.33-31.84Q173.47-33.35 173.47-34.86L173.47-34.86 173.42-35.64Q173.62-35.94 174.01-35.94L174.01-35.94Q174.55-35.94 174.84-35.6L174.84-35.6Q175.18-35.64 175.5-35.72 175.82-35.79 176.11-35.79L176.11-35.79Q176.55-35.79 176.84-35.5ZM179.82-27.88L179.72-27.73Q179.72-27.49 179.67-27.37 179.63-27.25 179.58-27.15L179.58-27.15Q179.58-27 179.6-26.83 179.63-26.66 179.63-26.46L179.63-26.46Q179.63-25.34 179.6-24.24 179.58-23.14 179.58-22.07L179.58-22.07 179.48-19.48Q179.48-19.24 179.53-18.95 179.58-18.65 179.58-18.41L179.58-18.41Q179.58-18.16 179.53-17.92 179.48-17.68 179.48-17.43L179.48-17.43Q179.48-16.8 179.63-16.16L179.63-16.16Q179.87-16.26 179.97-16.48 180.07-16.7 180.21-16.85L180.21-16.85Q181.34-17.87 182.31-18.99 183.29-20.12 184.31-21.24L184.31-21.24Q185.19-22.17 185.83-22.75 186.46-23.34 186.8-24.17L186.8-24.17Q185.97-24.71 185.09-25.27 184.22-25.83 183.24-26.22L183.24-26.22Q183.19-26.32 182.97-26.46 182.75-26.61 182.51-26.73 182.26-26.86 182.02-26.95 181.77-27.05 181.68-27.05L181.68-27.05Q181.24-27.44 180.75-27.54L180.75-27.54Q180.41-27.54 180.16-27.66 179.92-27.78 179.82-27.88L179.82-27.88ZM206.53-35.99L206.53-35.99Q206.63-35.79 206.75-35.72 206.87-35.64 206.92-35.4L206.92-35.4Q207.26-35.16 207.46-35.03 207.65-34.91 207.7-34.62L207.7-34.62Q208.14-34.28 208.21-34.18 208.29-34.08 208.33-33.94L208.33-33.94Q208.58-33.74 208.8-33.59 209.02-33.45 209.12-33.15L209.12-33.15Q209.51-32.81 209.6-32.62 209.7-32.42 209.75-32.18L209.75-32.18Q209.56-31.84 208.97-31.25 208.38-30.66 207.65-30 206.92-29.35 206.23-28.74 205.55-28.13 205.16-27.78L205.16-27.78Q205.06-27.59 204.92-27.44 204.77-27.29 204.67-27.1L204.67-27.1Q204.38-26.86 204.14-26.59 203.89-26.32 203.55-26.17L203.55-26.17Q203.06-25.49 202.18-24.83 201.3-24.17 201.01-23.54L201.01-23.54Q201.06-23.39 201.23-23.24 201.4-23.1 201.5-23L201.5-23Q201.89-22.61 202.43-22.29 202.96-21.97 203.35-21.58L203.35-21.58Q203.74-21.24 204.14-20.92 204.53-20.61 204.92-20.26L204.92-20.26Q205.11-20.07 205.4-19.68L205.4-19.68Q205.89-19.29 206.36-18.97 206.82-18.65 207.26-18.26L207.26-18.26Q208.19-17.48 209.07-16.67 209.95-15.87 210.92-15.09L210.92-15.09 211.31-14.65Q211.31-14.26 211.53-13.75 211.75-13.23 211.95-12.89L211.95-12.89Q211.85-12.4 211.97-12.28 212.09-12.16 212.19-12.06L212.19-12.06Q212.14-11.13 212.24-10.84L212.24-10.84Q211.41-10.11 210.7-9.5 209.99-8.89 209.46-8.3L209.46-8.3Q209.02-7.76 208.55-7.35 208.09-6.93 207.55-6.45L207.55-6.45Q207.26-6.05 207.06-5.91L207.06-5.91Q206.72-5.57 206.38-5.37L206.38-5.37Q205.8-4.83 205.23-4.35 204.67-3.86 204.14-3.37L204.14-3.37Q203.74-3.03 203.4-2.71 203.06-2.39 202.72-2L202.72-2Q202.43-1.71 202.06-1.32 201.69-0.93 201.3-0.68L201.3-0.68Q201.16-0.39 200.91-0.17 200.67 0.05 200.47 0.29L200.47 0.29Q200.13 0.49 199.84 0.68 199.55 0.88 199.15 1.07L199.15 1.07Q198.76 0.78 198.4 0.54 198.03 0.29 197.59 0.2L197.59 0.2Q197.3-0.05 197.15-0.29 197.01-0.54 196.62-0.63L196.62-0.63Q196.52-0.78 196.4-0.95 196.27-1.12 196.18-1.32L196.18-1.32Q195.59-1.37 195.25-2.05L195.25-2.05Q195.35-2.34 195.52-2.49 195.69-2.64 195.59-3.03L195.59-3.03Q195.88-3.52 196.3-3.88 196.71-4.25 197.1-4.64L197.1-4.64Q197.54-5.03 197.91-5.44 198.28-5.86 198.72-6.25L198.72-6.25Q198.96-6.49 199.2-6.71 199.45-6.93 199.74-7.18L199.74-7.18Q200.28-7.71 200.84-8.18 201.4-8.64 201.99-9.18L201.99-9.18Q202.77-9.96 203.6-10.67 204.43-11.38 205.11-12.26L205.11-12.26Q205.06-12.45 204.97-12.52 204.87-12.6 204.82-12.74L204.82-12.74Q204.04-13.48 203.28-14.18 202.52-14.89 201.65-15.43L201.65-15.43Q201.35-15.72 201.25-15.92L201.25-15.92Q200.38-16.55 199.57-17.33 198.76-18.12 197.79-18.65L197.79-18.65Q197.59-18.9 197.32-19.07 197.06-19.24 196.81-19.38L196.81-19.38Q196.66-19.63 196.49-19.8 196.32-19.97 196.08-20.07L196.08-20.07Q195.69-20.41 195.57-20.63 195.44-20.85 195.15-20.9L195.15-20.9Q195.05-21.14 194.83-21.29 194.61-21.44 194.37-21.63L194.37-21.63Q194.27-21.92 194.08-22.12L194.08-22.12Q194.03-22.51 194.13-22.68 194.22-22.85 194.27-22.95L194.27-22.95Q194.22-23.24 194-23.39 193.78-23.54 193.78-23.88L193.78-23.88Q193.78-24.07 193.91-24.15 194.03-24.22 194.08-24.37L194.08-24.37 194.22-25.1Q194.61-25.39 194.88-25.81 195.15-26.22 195.59-26.46L195.59-26.46Q196.08-27.2 196.81-27.69L196.81-27.69Q197.06-28.08 197.42-28.32 197.79-28.56 198.03-28.96L198.03-28.96Q198.42-29.2 198.69-29.49 198.96-29.79 199.35-30.03L199.35-30.03Q199.45-30.22 199.57-30.35 199.69-30.47 199.74-30.62L199.74-30.62Q201.06-31.88 202.06-32.81 203.06-33.74 204.14-34.67L204.14-34.67Q204.43-34.91 204.72-35.21 205.01-35.5 205.36-35.74L205.36-35.74Q205.45-35.84 205.6-35.84 205.75-35.84 205.89-35.94L205.89-35.94Q206.48-35.94 206.53-35.99Z" fill="#ffffff" data-fill-palette-color="secondary"></path></g></svg></g></svg></g></svg></g></svg></g><g transform="matrix(1,0,0,1,146.4355451449953,0)"><svg viewBox="0 0 102.64890971000938 102.64890971000938" height="102.64890971000938" width="102.64890971000938"><g><svg xmlns="http://www.w3.org/2000/svg" xmlns:xlink="http://www.w3.org/1999/xlink" version="1.1" x="0" y="0" viewBox="0 0 100 100" enable-background="new 0 0 100 100" xml:space="preserve" height="102.64890971000938" width="102.64890971000938" class="icon-icon-0" data-fill-palette-color="accent" id="icon-0"><path d="M70 92.5h-5l-6.759-6.76-0.019-0.018C57.771 85.277 57.152 85 56.467 85H52.5h-8.971c-0.675 0-1.285 0.271-1.734 0.705l-0.059 0.059L35 92.5h-5c-1.381 0-2.5 0.988-2.5 2.206v3.088c0 1.218 1.119 2.206 2.5 2.206h40c1.381 0 2.5-0.988 2.5-2.206v-3.088C72.5 93.488 71.381 92.5 70 92.5z" fill="#ffffff" data-fill-palette-color="accent"></path><g fill="#1946b8" data-fill-palette-color="accent"><path fill="none" d="M84.889 66.999c-1.688 0-3.055 1.366-3.055 3.056C81.834 68.367 83.201 67 84.889 66.999c1.688 0.001 3.055 1.368 3.055 3.056C87.943 68.365 86.577 66.999 84.889 66.999z"></path><path fill="none" d="M81.834 70.055c0 1.688 1.367 3.055 3.055 3.055C83.201 73.109 81.834 71.742 81.834 70.055z"></path><path fill="none" d="M84.889 73.109c1.688 0 3.055-1.366 3.055-3.055C87.943 71.742 86.576 73.109 84.889 73.109z"></path><path d="M90 0H10C4.477 0 0 4.477 0 10v60c0 5.521 4.477 10 10 10h80c5.523 0 10-4.479 10-10V10C100 4.477 95.523 0 90 0zM84.889 73.109c-1.688 0-3.055-1.366-3.055-3.055 0-1.689 1.367-3.056 3.055-3.056 1.688 0 3.055 1.366 3.055 3.056C87.943 71.743 86.577 73.109 84.889 73.109zM90 60H10V10h80V60z" fill="#ffffff" data-fill-palette-color="accent"></path></g></svg></g></svg></g><g></g></svg></g><defs></defs></svg><rect width="395.52" height="194.4592235440973" fill="none" stroke="none" visibility="hidden"></rect></g></svg></g></svg>